<?xml version="1.0" encoding="UTF-8" standalone="no"?>
<svg width="20px" height="20px" fill="gray"  viewBox="0 0 64 46" version="1.1" xmlns="http://www.w3.org/2000/svg" xmlns:xlink="http://www.w3.org/1999/xlink">
    <!-- Generator: Sketch 3.6.1 (26313) - http://www.bohemiancoding.com/sketch -->
    <title>Hand</title>
    <desc>Created with Sketch.</desc>
    <defs></defs>
    <g id="Page-1" stroke="none" stroke-width="1" fill="none" fill-rule="evenodd">
        <g id="Finance" transform="translate(-212.000000, -277.000000)" fill="gray">
            <g id="Hand" transform="translate(212.000000, 277.000000)">
                <path d="M7,24 L0,24 L0,46 L7,46 C8.657,46 10,44.657 10,43 L10,27 C10,25.343 8.657,24 7,24 M7,26 C7.551,26 8,26.449 8,27 L8,43 C8,43.552 7.552,44 7,44 L2,44 L2,26 L7,26" id="Fill-1"></path>
                <path d="M33.3447,46 C31.0127,46 28.7117,45.898 26.6057,45.806 L24.9997,45.736 C16.9237,45.411 8.8727,43.995 8.7927,43.979 L9.2067,42.021 C9.2847,42.038 17.1777,43.42 25.0797,43.738 L26.6937,43.808 C32.1007,44.046 38.8277,44.344 43.7377,42.784 C45.5887,42.196 55.2827,35.604 58.9357,33.06 C59.7797,32.472 60.4137,32.031 60.7337,31.814 C62.2377,30.796 62.2277,29.216 61.5827,28.179 C60.9817,27.215 59.6307,26.463 57.7897,27.511 C53.9077,29.723 42.8717,34.707 42.4057,34.914 L41.5947,33.086 C41.7077,33.036 53.0037,27.936 56.7987,25.773 C59.6597,24.143 62.1657,25.329 63.2807,27.122 C64.4517,29.004 64.3377,31.789 61.8547,33.47 C61.5387,33.684 60.9127,34.12 60.0787,34.701 C53.0117,39.623 46.2237,44.093 44.3427,44.69 C41.0807,45.726 37.1717,46 33.3447,46" id="Fill-3"></path>
                <path d="M30.7876,37.0668 C28.8736,37.0668 27.3706,37.0148 26.9616,36.9998 C26.4106,36.9788 25.9796,36.5148 26.0006,35.9628 C26.0216,35.4108 26.4936,34.9778 27.0376,35.0008 C31.3266,35.1648 38.7816,35.0678 40.5226,34.1218 C41.3386,33.6778 41.7866,33.0258 41.8176,32.2368 C41.8536,31.3268 41.3306,30.4088 40.4546,29.8388 C38.8316,28.7818 37.4166,28.8368 34.6046,28.9448 C34.1156,28.9638 33.5916,28.9848 33.0276,28.9998 C30.8006,29.0558 29.5436,28.5748 28.2086,28.0608 C27.0806,27.6268 26.0056,27.1808 23.9996,26.9998 C19.4356,26.5858 13.4236,27.8388 9.2616,28.9658 C8.7276,29.1088 8.1796,28.7948 8.0346,28.2608 C7.8906,27.7278 8.2056,27.1788 8.7386,27.0348 C13.0596,25.8658 19.3196,24.5698 24.1806,25.0078 C26.4636,25.2148 27.7306,25.7338 28.9276,26.1948 C30.1696,26.6728 31.1596,27.0518 32.9726,27.0008 C33.5296,26.9858 34.0446,26.9658 34.5276,26.9468 C37.4526,26.8338 39.3886,26.7588 41.5456,28.1618 C43.0096,29.1138 43.8796,30.7058 43.8156,32.3148 C43.7576,33.8038 42.9046,35.1028 41.4776,35.8788 C39.6416,36.8768 34.4606,37.0668 30.7876,37.0668" id="Fill-6"></path>
                <path d="M31,17 C27.019,17 25,17.673 25,19 C25,20.327 27.019,21 31,21 C34.981,21 37,20.327 37,19 C37,17.673 34.981,17 31,17 M31,18 C33.761,18 36,18.448 36,19 C36,19.552 33.761,20 31,20 C28.239,20 26,19.552 26,19 C26,18.448 28.239,18 31,18" id="Fill-8"></path>
                <path d="M36,19 L37,19 L37,20 C37,21.327 34.981,22 31,22 C27.019,22 25,21.327 25,20 L25,19 L26,19 L26,20 C26,20.552 28.239,21 31,21 C33.761,21 36,20.552 36,20 L36,19 Z" id="Fill-10" fill-opacity="0.5"></path>
                <path d="M41,8 C37.019,8 35,8.673 35,10 C35,11.327 37.019,12 41,12 C44.981,12 47,11.327 47,10 C47,8.673 44.981,8 41,8 M41,9 C43.761,9 46,9.448 46,10 C46,10.552 43.761,11 41,11 C38.239,11 36,10.552 36,10 C36,9.448 38.239,9 41,9" id="Fill-12"></path>
                <path d="M46,10 L47,10 L47,11 C47,12.327 44.981,13 41,13 C37.019,13 35,12.327 35,11 L35,10 L36,10 L36,11 C36,11.552 38.239,12 41,12 C43.761,12 46,11.552 46,11 L46,10 Z" id="Fill-14" fill-opacity="0.5"></path>
                <path d="M29,0 C25.019,0 23,0.673 23,2 C23,3.327 25.019,4 29,4 C32.981,4 35,3.327 35,2 C35,0.673 32.981,0 29,0 M29,1 C31.761,1 34,1.448 34,2 C34,2.552 31.761,3 29,3 C26.239,3 24,2.552 24,2 C24,1.448 26.239,1 29,1" id="Fill-16"></path>
                <path d="M34,2 L35,2 L35,3 C35,4.327 32.981,5 29,5 C25.019,5 23,4.327 23,3 L23,2 L24,2 L24,3 C24,3.552 26.239,4 29,4 C31.761,4 34,3.552 34,3 L34,2 Z" id="Fill-18" fill-opacity="0.5"></path>
            </g>
        </g>
    </g>
</svg>