<?xml version="1.0" ?><svg width="20px" height="20px" fill="gray" viewBox="0 0 32 32" xmlns="http://www.w3.org/2000/svg"><title/><g data-name="Layer 28" id="Layer_28"><path d="M19,7.2a3.39,3.39,0,1,1-3.23,4.35,5.26,5.26,0,0,1-.71.61A4.25,4.25,0,1,0,19,6.33a4.2,4.2,0,0,0-1.88.46,5.21,5.21,0,0,1,.11.92A3.36,3.36,0,0,1,19,7.2Z"/><path d="M12.09,12.83A4.91,4.91,0,1,0,7.17,7.92,4.92,4.92,0,0,0,12.09,12.83Zm0-8.83A3.91,3.91,0,1,1,8.17,7.92,3.93,3.93,0,0,1,12.09,4Z"/><path d="M19.31,15.19h-.53a5.48,5.48,0,0,0-1.27.15,6.69,6.69,0,0,1,.55.78,4.59,4.59,0,0,1,.71-.07h.53A4.64,4.64,0,0,1,24,20.69v6.22h-4.9v.37a.79.79,0,0,1-.19.5h5.52a.43.43,0,0,0,.43-.43V20.69A5.51,5.51,0,0,0,19.31,15.19Z"/><path d="M12.4,13.23h-.62a6.37,6.37,0,0,0-6.36,6.36v7.68a.5.5,0,0,0,.5.5H18.26a.5.5,0,0,0,.5-.5V19.59A6.37,6.37,0,0,0,12.4,13.23Zm5.36,13.54H6.42V19.59a5.37,5.37,0,0,1,5.36-5.36h.62a5.37,5.37,0,0,1,5.36,5.36Z"/></g></svg>